<svg xmlns="http://www.w3.org/2000/svg" width="156.188" height="35.937" viewBox="0 0 156.188 35.937">
  <path id="logo" fill-rule="evenodd" fill="#737373" d="M204.091,58.988a2.952,2.952,0,0,1-1.746,1.267,7.573,7.573,0,0,1-2.382.423,6.421,6.421,0,0,1-1.324-.159,4.274,4.274,0,0,1-1.376-.555,3.637,3.637,0,0,1-1.085-1.055,2.888,2.888,0,0,1-.45-1.664,2.765,2.765,0,0,1,.45-1.637,3.77,3.77,0,0,1,1.085-1.029,4.266,4.266,0,0,1,1.376-.554,6.446,6.446,0,0,1,1.324-.158,7.174,7.174,0,0,1,2.382.449,3.056,3.056,0,0,1,1.746,1.293v3.379Zm-3.44-19.8a26.071,26.071,0,0,0-2.859.185,25.506,25.506,0,0,0-3.414.632,19.1,19.1,0,0,0-3.494,1.267,11.508,11.508,0,0,0-3.044,2.086l1.553,2.447c1.3,1.933,1.774,2.18,4.134.989a9.457,9.457,0,0,1,1.142-.5,12.356,12.356,0,0,1,4.235-.768,5.672,5.672,0,0,1,3.785,1.189,3.594,3.594,0,0,1,1.4,2.823v2.376a3.578,3.578,0,0,0-1.19-1.161,8.842,8.842,0,0,0-1.88-.9,13.06,13.06,0,0,0-2.17-.555,12.713,12.713,0,0,0-2.064-.184,17.24,17.24,0,0,0-3.6.395,10.574,10.574,0,0,0-3.388,1.347,7.457,7.457,0,0,0-2.515,2.613,8.164,8.164,0,0,0-.979,4.2,7.576,7.576,0,0,0,.979,3.96,8.02,8.02,0,0,0,2.515,2.64,10.769,10.769,0,0,0,3.388,1.452,15.286,15.286,0,0,0,3.6.448c3.939,0,7.424-.243,11.96-0.473,3.354,0.006,4.934-1.026,4.874-5.158V49.909a10.869,10.869,0,0,0-1.139-5.253,9.129,9.129,0,0,0-2.964-3.3,11.61,11.61,0,0,0-4.156-1.689A23.573,23.573,0,0,0,200.651,39.192Zm31.261,8.5V39.245a9.077,9.077,0,0,0-2.249.29,11.251,11.251,0,0,0-2.171.793,13.8,13.8,0,0,0-1.932,1.134,7.846,7.846,0,0,0-1.482,1.32v-2.8h-5.367c-3.357.242-4.344,2.862-4.163,5.671V65.482h9.53V49.222a4.083,4.083,0,0,1,1.64-1.108,9.323,9.323,0,0,1,2.224-.58,12.061,12.061,0,0,1,2.25-.107A6.65,6.65,0,0,1,231.912,47.692Zm19.119,4.989A6.349,6.349,0,0,1,249.6,57.1a4.387,4.387,0,0,1-3.335,1.576,9.835,9.835,0,0,1-2.091-.264,2.946,2.946,0,0,1-1.827-1.154v-9.1a3.157,3.157,0,0,1,1.853-1.152,9.492,9.492,0,0,1,2.065-.264,4.418,4.418,0,0,1,3.335,1.549A6.253,6.253,0,0,1,251.031,52.68Zm9.74,0.026a17.555,17.555,0,0,0-.874-5.781,12.576,12.576,0,0,0-2.382-4.223,9.826,9.826,0,0,0-3.547-2.586,11.117,11.117,0,0,0-4.42-.871,10.352,10.352,0,0,0-4.156.792,6.935,6.935,0,0,0-3.044,2.639V34.019a3.221,3.221,0,0,0-3.52-3.748H232.82V59.58c-0.061,4.936,1.52,5.873,4.86,5.875h4.668V62.763a7.1,7.1,0,0,0,3.071,2.631,10.322,10.322,0,0,0,4.129.773,11.137,11.137,0,0,0,4.42-.87,9.965,9.965,0,0,0,3.547-2.561,12.234,12.234,0,0,0,2.382-4.222A17.8,17.8,0,0,0,260.771,52.706Zm20.016-2.427h-10a6.173,6.173,0,0,1,.423-1.558,4.181,4.181,0,0,1,.927-1.372,4.573,4.573,0,0,1,1.482-.977,6.42,6.42,0,0,1,4.367.026,4.9,4.9,0,0,1,1.509,1,3.864,3.864,0,0,1,.9,1.372A6.992,6.992,0,0,1,280.787,50.279Zm8.1,5.173V52.706a14.023,14.023,0,0,0-1.032-5.437,12.931,12.931,0,0,0-2.806-4.249,12.762,12.762,0,0,0-4.208-2.772,13.62,13.62,0,0,0-5.241-1,14.627,14.627,0,0,0-5.664,1.056,13.443,13.443,0,0,0-4.394,2.9,12.956,12.956,0,0,0-2.859,4.3,14.424,14.424,0,0,0,.106,10.847,12.647,12.647,0,0,0,3.018,4.224,13.064,13.064,0,0,0,4.5,2.664,16.578,16.578,0,0,0,5.612.925,17.452,17.452,0,0,0,2.673-.237,19.86,19.86,0,0,0,2.991-.714A17.1,17.1,0,0,0,284.44,64c2.247-1.2,1-3.874-1.022-7.217a12.328,12.328,0,0,1-1.943,1.067q-0.741.343-1.562,0.633a12.275,12.275,0,0,1-1.588.449,6.632,6.632,0,0,1-1.3.157,6.933,6.933,0,0,1-4.076-1.082,5.356,5.356,0,0,1-2.064-2.56h18Zm27.714,7.6c-0.017-1.3-.019-2.4-0.019-4.269V47.269a9.605,9.605,0,0,0-.5-3.115,6.849,6.849,0,0,0-1.535-2.56,7.293,7.293,0,0,0-2.621-1.716,10.3,10.3,0,0,0-3.811-.633,11.785,11.785,0,0,0-5.532,1.135,11.382,11.382,0,0,0-3.256,2.4v-2.8h-5.687c-4.054,0-3.841,3.58-3.841,7.013V65.482h6.774c2.255,0,2.754-.318,2.754-2.327V49.222a8.24,8.24,0,0,1,1.509-1.345,4.362,4.362,0,0,1,2.568-.66,4.044,4.044,0,0,1,2.673.818,3.51,3.51,0,0,1,.979,2.825V62.472q0,1.32.027,2.165c0.018,0.563.026,0.844,0.026,0.844h6.481C314.918,65.482,316.531,64.989,316.6,63.046ZM187.18,34.374V30.218H163.4c-2.672,0-3.01,1.045-3.01,3.928V65.482h6.271c2.961,0,4.544-.164,4.423-3.858V51.6c3.732,0.012,6.052.025,9.785,0.036,3.043,0.079,4.555.109,4.525-3.757V43.731h-14.31V38.664l11.467,0C186.205,38.632,187.151,38,187.18,34.374Z" transform="translate(-160.406 -30.219)"/>
</svg>
