<svg width="190" height="25" viewBox="0 0 190 25" fill="none" xmlns="http://www.w3.org/2000/svg">
<path d="M20.6416 24.6449L5.15896 4.83437V22.6926L8.31667 23.439V24.2594H1.11677V23.439L3.69584 22.6926V3.23477C3.06812 2.65412 2.31231 2.22714 1.48875 1.98789C1.17463 1.92227 0.753052 1.84844 0.753052 1.84844V1.02813H6.8618L20.0878 18.0906V2.61133L16.9301 1.85664V1.03633H24.13V1.85664L21.5509 2.61133V20.3219C21.5509 21.9625 21.6667 24.3496 21.6915 24.6531L20.6416 24.6449ZM53.0123 12.0285C53.0123 20.2316 47.2259 24.9894 40.9022 24.9894C34.5785 24.9894 28.7674 20.166 28.7674 12.6684C28.7674 5.1707 34.5537 0.298052 40.8443 0.298052C42.4278 0.246178 44.0055 0.511826 45.4831 1.0791C46.9607 1.64638 48.3078 2.50362 49.4438 3.59954C50.5798 4.69546 51.4814 6.00753 52.0945 7.45724C52.7076 8.90695 53.0198 10.4645 53.0123 12.0367V12.0285ZM48.9866 13.259C48.9866 7.22969 45.3494 1.38086 40.4062 1.38086C35.1489 1.38086 32.7765 6.42578 32.7765 11.8234C32.7765 17.2211 35.7771 23.9148 41.423 23.9148C46.7299 23.9148 48.9866 18.5828 48.9866 13.259ZM58.0133 2.59492L55.5335 1.84024V1.01992H65.0314V1.84024L62.0555 2.59492L68.6107 20.3301L75.1658 2.59492L72.1899 1.84024V1.01992H79.2162V1.84024L76.7364 2.59492L68.528 24.7023H66.4284L58.0133 2.59492ZM114.141 12.3976H112.637V2.24219C117.596 2.24219 120.547 3.37422 120.547 7.39375C120.523 10.3797 117.944 12.3976 114.141 12.3976ZM156.638 23.439L159.944 22.6926V2.60313L156.638 1.84844V1.02813H166.946V1.84844L163.639 2.60313V22.6926L166.946 23.439V24.2594H156.638V23.439ZM173.261 17.8773H173.914L176.105 22.8812C177.407 23.5303 178.839 23.8834 180.296 23.9148C183.139 23.9148 185.735 22.2742 185.735 19.3375C185.735 17.1062 184.28 15.7773 181.924 14.5551L179.593 13.3574C176.808 11.9219 174.022 9.88749 174.022 6.61445C174.022 3.0543 176.502 0.306255 181.809 0.306255C183.673 0.325044 185.524 0.626572 187.297 1.20039L187.851 6.58164H187.149L185.123 2.2668C184.075 1.68574 182.894 1.38074 181.693 1.38086C179.006 1.38086 177.18 3.02149 177.18 5.29375C177.18 7.35273 178.56 8.64883 180.924 9.86289L183.685 11.2902C187.454 13.2262 189.24 15.0226 189.24 18.3449C189.24 22.4465 185.363 24.9976 180.544 24.9976C178.275 25.0319 176.016 24.6966 173.857 24.0051L173.261 17.8773ZM77.7035 23.439L80.357 22.6926L88.5488 1.01172L91.285 0.314458L99.7413 22.6844L102.395 23.439V24.2594H92.3596V23.439L95.757 22.6844L93.3598 16.2531H84.3496L81.9689 22.6844L85.3663 23.4308V24.2512H77.7035V23.439ZM84.9778 14.5387H92.7729L88.9043 4.16992L84.9778 14.5387ZM118.869 12.898C119.696 12.693 124.333 11.5199 124.333 7.15586C124.333 3.65313 121.63 0.937894 114.968 0.937894C110.835 0.937894 106.702 1.02813 106.181 1.04453V1.86485L108.9 2.61953V22.6844L106.181 23.439V24.2594H115.803V23.439L112.645 22.6844V13.6117H115.365L122.316 24.2758H128.475V23.4554L125.358 22.6351L118.869 12.898ZM139.188 2.23399V22.6926L135.881 23.439V24.2594H146.189V23.439L142.883 22.6926V2.24219H148.446L150.281 6.16328H150.992L150.463 1.05274H131.608L131.079 6.16328H131.79L133.608 2.2832L139.188 2.23399Z" fill="#737373"/>
</svg>
