<svg width="844" height="81" viewBox="0 0 844 81" fill="none" xmlns="http://www.w3.org/2000/svg">
<path d="M525.614 8.82797C525.614 4.93897 528.577 1.91898 532.494 1.91898H560.491C569.379 1.91898 576.371 4.36297 580.822 8.82797C584.22 12.254 586.003 16.48 586.003 21.717V21.942C586.003 31.265 580.681 36.221 574.897 39.239C583.995 42.371 590.356 47.58 590.356 58.138V58.349C590.356 72.235 578.927 79.69 561.572 79.69H532.494C528.577 79.69 525.614 76.671 525.614 72.81V8.82797ZM557.697 34.69C566.472 34.69 572.341 31.264 572.341 24.159V23.935C572.341 17.827 567.455 14.036 558.68 14.036H539.051V34.69H557.697ZM561.698 67.573C571.021 67.573 576.68 63.866 576.68 56.93V56.678C576.68 50.093 571.47 46.232 560.687 46.232H539.051V67.573H561.698ZM601.377 70.803L630.231 6.38397C631.818 2.92997 634.569 0.823975 638.487 0.823975H639.118C643.036 0.823975 645.703 2.92997 647.233 6.38397L676.115 70.803C676.664 71.786 676.874 72.81 676.874 73.653C676.874 77.36 674.107 80.21 670.457 80.21C667.227 80.21 665.009 78.314 663.802 75.436L657.441 60.904H619.7L613.143 75.871C612.02 78.679 609.689 80.21 606.81 80.21C603.272 80.21 600.478 77.472 600.478 73.878C600.478 72.908 600.802 71.898 601.377 70.803ZM652.26 48.787L638.599 17.378L624.881 48.787H652.26ZM691.714 8.39197C691.714 4.57297 694.677 1.51198 698.594 1.51198H700.026C703.368 1.51198 705.264 3.15498 707.131 5.48598L745.981 55.807V8.05498C745.981 4.36198 749 1.39998 752.651 1.39998C756.456 1.39998 759.419 4.36198 759.419 8.05498V73.33C759.419 77.107 756.568 80.097 752.763 80.097H752.216C749.001 80.097 747.007 78.427 745.14 75.984L705.152 24.272V73.54C705.152 77.219 702.133 80.21 698.497 80.21C694.678 80.21 691.715 77.219 691.715 73.54L691.714 8.39197ZM779.469 8.16698C779.469 4.36198 782.46 1.39998 786.349 1.39998C790.14 1.39998 793.131 4.36198 793.131 8.16698V41.05L830.016 3.94098C831.546 2.24198 833.189 1.39998 835.66 1.39998C839.451 1.39998 841.992 4.36197 841.992 7.70297C841.992 9.80997 841.094 11.355 839.549 12.829L815.343 36.136L841.557 68.669C842.652 70.115 843.452 71.434 843.452 73.54C843.452 77.359 840.434 80.21 836.544 80.21C833.877 80.21 832.234 78.89 830.802 76.994L805.767 45.136L793.131 57.337V73.442C793.131 77.219 790.14 80.21 786.349 80.21C782.46 80.21 779.469 77.219 779.469 73.442V8.16698Z" fill="#737373"/>
<path d="M197.524 1.067H185.758C184.748 1.067 183.891 1.896 183.891 2.907V56.514C177.783 49.55 137.135 3.51001 136.125 2.44301C135.057 1.29201 133.569 1.067 132.643 1.067H120.961C119.95 1.067 119.122 1.896 119.122 2.907V76.943C119.122 77.967 119.95 78.811 120.961 78.811H132.755C133.766 78.811 134.594 77.968 134.594 76.943V22.929C139.031 27.913 181.729 76.284 182.768 77.421C183.863 78.586 185.351 78.811 186.278 78.811H197.524C198.535 78.811 199.364 77.968 199.364 76.943V2.907C199.364 1.896 198.536 1.067 197.524 1.067ZM265.509 0H238.411C223.71 0 211.818 10.587 211.818 23.631V56.219C211.818 69.263 223.71 79.822 238.411 79.822H265.509C280.182 79.822 292.102 69.263 292.102 56.219V35.299H250.977V46.265C250.977 47.304 251.82 48.16 252.831 48.16H275.38V63.24C275.38 64.251 274.495 65.079 273.484 65.079H230.408C229.397 65.079 228.568 64.25 228.568 63.24V16.583C228.568 15.572 229.397 14.757 230.408 14.757H273.484C274.495 14.757 275.324 15.572 275.324 16.583V25.499C275.324 26.566 276.153 27.393 277.219 27.393H290.221C291.288 27.393 292.102 26.565 292.102 25.499V23.631C292.102 10.587 280.182 0 265.509 0ZM489.907 1.067H478.169C477.13 1.067 476.302 1.896 476.302 2.907V56.514C470.166 49.55 429.575 3.51001 428.564 2.44301C427.413 1.29201 425.966 1.067 425.026 1.067H413.4C412.389 1.067 411.504 1.896 411.504 2.907V76.943C411.504 77.967 412.389 78.811 413.4 78.811H425.137C426.176 78.811 427.005 77.968 427.005 76.943V22.929C431.442 27.913 474.111 76.284 475.15 77.421C476.259 78.586 477.734 78.811 478.689 78.811H489.907C490.975 78.811 491.802 77.968 491.802 76.943V2.907C491.802 1.896 490.974 1.067 489.907 1.067ZM366.995 3.103C366.293 1.812 365.086 0.927002 363.654 0.927002H352.028C350.568 0.927002 349.388 1.812 348.658 3.103L312.124 75.076C310.917 77.393 311.928 78.782 314.104 78.782H325.702C327.344 78.782 328.004 78.376 328.861 76.761L357.841 18.843L386.821 76.761C387.706 78.375 388.309 78.782 389.98 78.782H401.577C403.726 78.782 404.793 77.393 403.585 75.076L366.995 3.103ZM58.5495 39.539C58.5495 40.578 57.7204 41.406 56.682 41.406H16.9472V14.757H56.682C57.721 14.757 58.5495 15.572 58.5495 16.583V39.539ZM49.6898 1.067H1.8254C0.814399 1.067 0 1.896 0 2.907V76.943C0 77.967 0.814399 78.811 1.8254 78.811H15.1078C16.1187 78.811 16.9472 77.968 16.9472 76.943V55.124H49.6898C64.3903 55.124 76.283 46.419 76.283 33.375V24.712C76.283 11.626 64.3903 1.067 49.6898 1.067ZM102.638 1.067H89.5096C88.5116 1.067 87.6696 1.896 87.6696 2.907V76.943C87.6696 77.967 88.5126 78.811 89.5096 78.811H102.638C103.649 78.811 104.505 77.968 104.505 76.943V2.907C104.505 1.896 103.648 1.067 102.638 1.067Z" fill="#737373"/>
<path d="M367.849 55.556H347.855C346.845 55.556 346.016 56.412 346.016 57.424V76.94C346.016 77.966 346.844 78.779 347.855 78.779H367.849C368.86 78.779 369.689 77.965 369.689 76.94V57.424C369.689 56.413 368.861 55.556 367.849 55.556Z" fill="#737373"/>
</svg>
