<svg width="444" height="68" viewBox="0 0 444 68" fill="none" xmlns="http://www.w3.org/2000/svg">
<path d="M16.868 18.383C16.56 17.104 16.633 15.753 16.804 15.05C17.238 13.028 18.611 10.773 22.613 10.773C26.326 10.773 28.511 13.08 28.511 16.537C28.511 17.711 28.511 20.467 28.511 20.467H44.342V16.009C44.342 2.201 31.894 0 22.92 0C11.646 0 2.435 3.742 0.75 14.107C0.289 16.952 0.210003 19.455 0.876003 22.662C3.625 35.639 26.182 39.391 29.463 47.601C30.078 49.127 29.892 51.088 29.587 52.288C29.066 54.423 27.634 56.575 23.389 56.575C19.424 56.575 17.052 54.265 17.052 50.798L17.03 44.691H0V49.544C0 63.735 11.145 68.003 23.071 68.003C34.539 68.003 43.957 64.095 45.492 53.473C46.256 47.998 45.682 44.435 45.426 43.083C42.747 29.759 18.675 25.812 16.868 18.383ZM223.282 18.538C222.999 17.285 223.081 15.954 223.225 15.258C223.68 13.226 225.045 11.01 228.979 11.01C232.645 11.01 234.793 13.295 234.793 16.725C234.793 17.882 234.793 20.606 234.793 20.606H250.439V16.182C250.439 2.507 238.179 0.357998 229.302 0.357998C218.122 0.357998 208.991 4.045 207.323 14.333C206.883 17.134 206.773 19.619 207.474 22.791C210.193 35.621 232.528 39.343 235.77 47.457C236.342 48.994 236.178 50.954 235.885 52.109C235.401 54.22 233.981 56.344 229.77 56.344C225.819 56.344 223.444 54.073 223.444 50.651L223.438 44.56H206.596V49.403C206.596 63.431 217.585 67.666 229.421 67.666C240.757 67.666 250.12 63.793 251.62 53.291C252.337 47.866 251.798 44.333 251.509 43.003C248.888 29.843 225.083 25.885 223.282 18.538ZM367.399 53.121L352.452 2.02H328.899V64.827H344.481L343.577 12.093L359.628 64.827H382.218V2.02H366.534L367.399 53.121ZM67.948 2.02L56.191 65.489H73.337L82.196 6.734L90.842 65.489H107.866L96.161 2.02H67.948ZM163.815 2.02L155.808 51.632L147.806 2.02H121.913L120.54 65.489H136.402L136.832 6.734L147.746 65.489H163.84L174.764 6.734L175.195 65.489H191.098L189.678 2.02H163.815ZM311.302 2.02H295.251V48.974C295.274 49.79 295.251 50.711 295.108 51.385C294.772 52.961 293.438 55.993 289.008 55.993C284.637 55.993 283.266 52.961 282.957 51.385C282.795 50.711 282.773 49.79 282.795 48.974V2.02H266.748V47.516C266.728 48.689 266.818 51.085 266.889 51.712C267.998 63.566 277.342 67.416 289.008 67.416C300.697 67.416 310.035 63.566 311.164 51.712C311.254 51.085 311.369 48.689 311.299 47.516V2.02H311.302ZM421.516 29.864V39.12H428.022V48.306C428.04 49.125 427.997 50.012 427.854 50.72C427.596 52.433 425.969 55.35 421.352 55.35C416.76 55.35 415.163 52.433 414.885 50.72C414.77 50.012 414.721 49.125 414.721 48.306V19.298C414.721 18.272 414.787 17.15 415.006 16.299C415.32 14.752 416.692 11.703 421.317 11.703C426.172 11.703 427.385 14.918 427.661 16.299C427.847 17.213 427.854 18.746 427.854 18.746V22.267H443.84V20.185C443.84 20.185 443.91 18.012 443.717 15.984C442.516 4.078 432.705 0.312 421.457 0.312C410.189 0.312 400.578 4.113 399.178 15.984C399.053 17.069 398.858 19.022 398.858 20.185V46.869C398.858 48.031 398.897 48.932 399.112 51.057C400.155 62.635 410.19 66.74 421.415 66.74C432.708 66.74 442.673 62.636 443.733 51.057C443.922 48.932 443.94 48.033 443.965 46.869V29.864H421.516Z" fill="#737373"/>
</svg>
